<svg width="15" height="14" viewBox="0 0 15 14" fill="none" xmlns="http://www.w3.org/2000/svg">
    <path d="M3.90137 13.4561H11.3936C12.0999 13.4561 12.64 13.2715 13.0137 12.9023C13.3874 12.5378 13.5742 12.0046 13.5742 11.3027V4.9248H1.7207V11.3027C1.7207 12.0091 1.90755 12.5446 2.28125 12.9092C2.65495 13.2738 3.19499 13.4561 3.90137 13.4561ZM5.44629 7.5293C5.28223 7.5293 5.14779 7.47689 5.04297 7.37207C4.94271 7.26725 4.89258 7.13053 4.89258 6.96191V6.75C4.89258 6.58138 4.94271 6.44694 5.04297 6.34668C5.14779 6.24186 5.28223 6.18945 5.44629 6.18945H9.85547C10.0195 6.18945 10.154 6.24186 10.2588 6.34668C10.3636 6.44694 10.416 6.58138 10.416 6.75V6.96191C10.416 7.13053 10.3636 7.26725 10.2588 7.37207C10.154 7.47689 10.0195 7.5293 9.85547 7.5293H5.44629ZM1.9873 3.92676H13.3145C13.7246 3.92676 14.0322 3.81283 14.2373 3.58496C14.4469 3.3571 14.5518 3.04036 14.5518 2.63477V1.98535C14.5518 1.57975 14.4469 1.26302 14.2373 1.03516C14.0322 0.807292 13.7246 0.693359 13.3145 0.693359H1.9873C1.59538 0.693359 1.29004 0.807292 1.07129 1.03516C0.852539 1.26302 0.743164 1.57975 0.743164 1.98535V2.63477C0.743164 3.04036 0.845703 3.3571 1.05078 3.58496C1.26042 3.81283 1.57259 3.92676 1.9873 3.92676Z" fill="#7F7F7F"/>
</svg>
