<svg width="14" height="16" viewBox="0 0 14 16" fill="none" xmlns="http://www.w3.org/2000/svg">
    <path d="M3.55273 15.9209H10.0264C10.4912 15.9209 10.8535 15.7979 11.1133 15.5518C11.3776 15.3102 11.5212 14.9593 11.5439 14.499L11.9746 4.61426H12.9248C13.0934 4.61426 13.237 4.55501 13.3555 4.43652C13.474 4.31803 13.5332 4.17448 13.5332 4.00586C13.5332 3.83724 13.474 3.69596 13.3555 3.58203C13.237 3.4681 13.0934 3.41113 12.9248 3.41113H0.654297C0.485677 3.41113 0.342122 3.47038 0.223633 3.58887C0.105143 3.7028 0.0458984 3.8418 0.0458984 4.00586C0.0458984 4.17448 0.105143 4.31803 0.223633 4.43652C0.342122 4.55501 0.485677 4.61426 0.654297 4.61426H1.61133L2.04199 14.499C2.06478 14.9593 2.20605 15.3102 2.46582 15.5518C2.72559 15.7979 3.08789 15.9209 3.55273 15.9209ZM4.59863 13.8291C4.46647 13.8291 4.35482 13.7904 4.26367 13.7129C4.17708 13.6309 4.13379 13.5215 4.13379 13.3848L3.92188 6.11133C3.92188 5.97461 3.96289 5.86523 4.04492 5.7832C4.13151 5.70117 4.24772 5.66016 4.39355 5.66016C4.52572 5.66016 4.63509 5.70117 4.72168 5.7832C4.81283 5.86523 4.86068 5.97233 4.86523 6.10449L5.07031 13.3779C5.07487 13.5146 5.03385 13.624 4.94727 13.7061C4.86068 13.7881 4.74447 13.8291 4.59863 13.8291ZM6.79297 13.8291C6.64714 13.8291 6.52865 13.7881 6.4375 13.7061C6.35091 13.624 6.30762 13.5169 6.30762 13.3848V6.10449C6.30762 5.97233 6.35091 5.86523 6.4375 5.7832C6.52865 5.70117 6.64714 5.66016 6.79297 5.66016C6.93424 5.66016 7.04818 5.70117 7.13477 5.7832C7.22591 5.86523 7.27148 5.97233 7.27148 6.10449V13.3848C7.27148 13.5169 7.22591 13.624 7.13477 13.7061C7.04818 13.7881 6.93424 13.8291 6.79297 13.8291ZM8.98047 13.8291C8.83464 13.8291 8.71842 13.7881 8.63184 13.7061C8.54525 13.624 8.50423 13.5146 8.50879 13.3779L8.71387 6.10449C8.71842 5.97233 8.764 5.86523 8.85059 5.7832C8.94173 5.70117 9.05339 5.66016 9.18555 5.66016C9.33138 5.66016 9.44531 5.70117 9.52734 5.7832C9.61393 5.86523 9.65723 5.97461 9.65723 6.11133L9.44531 13.3848C9.44531 13.5215 9.39974 13.6309 9.30859 13.7129C9.22201 13.7904 9.11263 13.8291 8.98047 13.8291ZM3.61426 3.65039H5.02246V2.44727C5.02246 2.29232 5.07031 2.16927 5.16602 2.07812C5.26628 1.98242 5.40299 1.93457 5.57617 1.93457H7.99609C8.16927 1.93457 8.30371 1.98242 8.39941 2.07812C8.49967 2.16927 8.5498 2.29232 8.5498 2.44727V3.65039H9.95801V2.38574C9.95801 1.84342 9.79167 1.4196 9.45898 1.11426C9.1263 0.804362 8.66602 0.649414 8.07812 0.649414H5.4873C4.89941 0.649414 4.43913 0.804362 4.10645 1.11426C3.77832 1.4196 3.61426 1.84342 3.61426 2.38574V3.65039Z" fill="#7F7F7F"/>
</svg>
