<svg width="13" height="16" viewBox="0 0 13 16" fill="none" xmlns="http://www.w3.org/2000/svg">
    <path d="M2.96484 15.4678H10.2451C10.9788 15.4678 11.5326 15.2764 11.9062 14.8936C12.2799 14.5153 12.4668 13.9593 12.4668 13.2256V7.10742H7.35352C6.50586 7.10742 6.08203 6.68359 6.08203 5.83594V0.667969H2.96484C2.23112 0.667969 1.67741 0.859375 1.30371 1.24219C0.930013 1.62044 0.743164 2.17643 0.743164 2.91016V13.2256C0.743164 13.9639 0.930013 14.5221 1.30371 14.9004C1.67741 15.2786 2.23112 15.4678 2.96484 15.4678ZM7.47656 6.10938H12.3916C12.3734 5.95443 12.3096 5.79948 12.2002 5.64453C12.0954 5.48958 11.9541 5.32096 11.7764 5.13867L8.04395 1.35156C7.87533 1.17839 7.71126 1.03711 7.55176 0.927734C7.39681 0.818359 7.24186 0.754557 7.08691 0.736328V5.71973C7.08691 5.97949 7.2168 6.10938 7.47656 6.10938Z" fill="#7F7F7F"/>
</svg>
