<svg width="16" height="14" viewBox="0 0 16 14" fill="none" xmlns="http://www.w3.org/2000/svg">
    <path d="M8.63867 13.4219C8.81641 13.4219 8.98503 13.3831 9.14453 13.3057C9.30859 13.2327 9.47949 13.112 9.65723 12.9434L15.0713 7.85742C15.2035 7.73438 15.2969 7.60221 15.3516 7.46094C15.4108 7.31966 15.4404 7.1875 15.4404 7.06445C15.4404 6.93685 15.4108 6.80469 15.3516 6.66797C15.2969 6.52669 15.2035 6.39453 15.0713 6.27148L9.65723 1.22656C9.46126 1.03971 9.28809 0.907552 9.1377 0.830078C8.99186 0.748047 8.8278 0.707031 8.64551 0.707031C8.37663 0.707031 8.15332 0.800456 7.97559 0.987305C7.80241 1.1696 7.71582 1.39062 7.71582 1.65039V4.09766H7.54492C6.36003 4.09766 5.33236 4.28223 4.46191 4.65137C3.59603 5.01595 2.87826 5.54688 2.30859 6.24414C1.74349 6.94141 1.32194 7.78451 1.04395 8.77344C0.765951 9.75781 0.626953 10.8698 0.626953 12.1094C0.626953 12.5332 0.706706 12.8522 0.866211 13.0664C1.03027 13.2852 1.23079 13.3945 1.46777 13.3945C1.64551 13.3945 1.81413 13.3558 1.97363 13.2783C2.1377 13.2008 2.28581 13.0391 2.41797 12.793C2.77799 12.1185 3.19727 11.5807 3.67578 11.1797C4.1543 10.7786 4.71029 10.4893 5.34375 10.3115C5.97721 10.1338 6.71094 10.0449 7.54492 10.0449H7.71582V12.5127C7.71582 12.7725 7.80241 12.9889 7.97559 13.1621C8.15332 13.3353 8.37435 13.4219 8.63867 13.4219Z" fill="#7F7F7F"/>
</svg>
