<svg width="17" height="13" viewBox="0 0 17 13" fill="none" xmlns="http://www.w3.org/2000/svg">
    <path d="M8.42676 6.78906C8.70475 6.78906 8.99186 6.64095 9.28809 6.34473L15.2422 0.431641C14.9779 0.194661 14.5107 0.0761719 13.8408 0.0761719H2.81445C2.22656 0.0761719 1.81413 0.185547 1.57715 0.404297L7.56543 6.34473C7.8571 6.64095 8.14421 6.78906 8.42676 6.78906ZM0.927734 10.918L5.83594 6.05078L0.93457 1.21777C0.806966 1.43652 0.743164 1.79427 0.743164 2.29102V9.85156C0.743164 10.3483 0.804688 10.7038 0.927734 10.918ZM2.98535 12.0732H14.0117C14.6087 12.0732 15.0303 11.957 15.2764 11.7246L10.2793 6.76172L9.85547 7.19238C9.39062 7.639 8.91439 7.8623 8.42676 7.8623C7.93457 7.8623 7.45605 7.639 6.99121 7.19238L6.56738 6.76855L1.57715 11.7246C1.85514 11.957 2.32454 12.0732 2.98535 12.0732ZM15.9053 10.9111C16.0238 10.6924 16.083 10.3392 16.083 9.85156V2.29102C16.083 1.79883 16.0215 1.44564 15.8984 1.23145L11.0107 6.05078L15.9053 10.9111Z" fill="#F8FAFC"/>
</svg>
