<svg width="14" height="10" viewBox="0 0 14 10" fill="none" xmlns="http://www.w3.org/2000/svg">
    <path d="M1.93837 10H12.0557C12.6979 10 13.1825 9.84336 13.5095 9.53009C13.8365 9.21681 14 8.75263 14 8.13754V4.9341C14 4.72397 13.9862 4.54632 13.9586 4.40115C13.935 4.25597 13.8936 4.12607 13.8345 4.01146C13.7794 3.89685 13.7025 3.77459 13.6041 3.6447L11.6598 1.12894C11.4313 0.830946 11.2244 0.601719 11.0393 0.441261C10.8541 0.276982 10.6472 0.162369 10.4187 0.0974212C10.1902 0.0324737 9.89869 0 9.54411 0H4.45589C4.09737 0 3.80386 0.0324737 3.57535 0.0974212C3.35078 0.162369 3.14591 0.276982 2.96074 0.441261C2.77557 0.601719 2.56874 0.830946 2.34023 1.12894L0.395948 3.6447C0.297453 3.77459 0.218658 3.89685 0.159561 4.01146C0.100464 4.12607 0.0590967 4.25597 0.035458 4.40115C0.0118193 4.54632 0 4.72397 0 4.9341V8.13754C0 8.75263 0.163501 9.21681 0.490502 9.53009C0.817504 9.84336 1.30013 10 1.93837 10ZM6.99705 6.49284C6.70156 6.49284 6.44351 6.42598 6.22288 6.29226C6.00619 6.15473 5.83875 5.97899 5.72056 5.76504C5.60236 5.54728 5.54327 5.31805 5.54327 5.07736V5.03725C5.54327 4.90735 5.5019 4.79083 5.41916 4.68768C5.33643 4.58071 5.21036 4.52722 5.04095 4.52722H1.4656C1.35922 4.52722 1.29422 4.49284 1.27058 4.42407C1.24694 4.3553 1.2627 4.28462 1.31786 4.21203L3.46897 1.40401C3.59899 1.23591 3.74279 1.11748 3.90038 1.04871C4.06191 0.976122 4.24117 0.939828 4.43816 0.939828H9.55593C9.7608 0.939828 9.94203 0.976122 10.0996 1.04871C10.2572 1.11748 10.399 1.23591 10.5251 1.40401L12.6821 4.21203C12.7294 4.28462 12.7412 4.3553 12.7176 4.42407C12.6979 4.49284 12.6349 4.52722 12.5285 4.52722H8.95905C8.78964 4.52722 8.66357 4.58071 8.58084 4.68768C8.50204 4.79083 8.46264 4.90735 8.46264 5.03725V5.07736C8.46264 5.31805 8.40158 5.54728 8.27944 5.76504C8.16125 5.97899 7.99184 6.15473 7.77121 6.29226C7.55452 6.42598 7.29647 6.49284 6.99705 6.49284Z" fill="#F8FAFC"/>
</svg>
