<svg width="16" height="14" viewBox="0 0 16 14" fill="none" xmlns="http://www.w3.org/2000/svg">
    <path d="M7.79297 13.4219C8.05729 13.4219 8.27604 13.3353 8.44922 13.1621C8.6224 12.9889 8.70898 12.7725 8.70898 12.5127V10.0449H8.87988C9.71842 10.0449 10.4544 10.1338 11.0879 10.3115C11.7214 10.4893 12.2751 10.7786 12.749 11.1797C13.2275 11.5807 13.6468 12.1185 14.0068 12.793C14.1436 13.0391 14.2917 13.2008 14.4512 13.2783C14.6152 13.3558 14.7861 13.3945 14.9639 13.3945C15.2008 13.3945 15.3991 13.2852 15.5586 13.0664C15.7227 12.8522 15.8047 12.5332 15.8047 12.1094C15.8047 10.8698 15.6657 9.75781 15.3877 8.77344C15.1097 7.78451 14.6859 6.94141 14.1162 6.24414C13.5511 5.54688 12.8333 5.01595 11.9629 4.65137C11.0924 4.28223 10.0648 4.09766 8.87988 4.09766H8.70898V1.65039C8.70898 1.39062 8.6224 1.1696 8.44922 0.987305C8.27604 0.800456 8.05273 0.707031 7.7793 0.707031C7.59701 0.707031 7.43294 0.748047 7.28711 0.830078C7.14128 0.907552 6.97038 1.03971 6.77441 1.22656L1.36035 6.27148C1.22363 6.39453 1.12793 6.52669 1.07324 6.66797C1.01855 6.80469 0.991211 6.93685 0.991211 7.06445C0.991211 7.1875 1.01855 7.31966 1.07324 7.46094C1.12793 7.60221 1.22363 7.73438 1.36035 7.85742L6.77441 12.9434C6.95215 13.112 7.11849 13.2327 7.27344 13.3057C7.43294 13.3831 7.60612 13.4219 7.79297 13.4219Z" fill="#F8FAFC"/>
</svg>
