<svg width="14" height="14" viewBox="0 0 14 14" fill="none" xmlns="http://www.w3.org/2000/svg">
    <path d="M8.34844 14C8.60403 14 8.82216 13.9031 9.00283 13.7092C9.18351 13.5197 9.33554 13.2663 9.45892 12.949L13.8149 1.54674C13.8722 1.39692 13.9163 1.25811 13.9471 1.13031C13.978 1.00252 13.9934 0.881335 13.9934 0.766761C13.9934 0.533207 13.9251 0.348127 13.7885 0.21152C13.6519 0.0705068 13.4668 0 13.2332 0C13.1231 0 13.0019 0.0176267 12.8697 0.0528801C12.7375 0.0837268 12.5965 0.12559 12.4466 0.17847L1.00472 4.56091C0.718288 4.67107 0.478124 4.81649 0.28423 4.99717C0.0947435 5.17784 0 5.39597 0 5.65156C0 5.96443 0.10576 6.19578 0.31728 6.34561C0.528801 6.49103 0.795404 6.61221 1.11709 6.70916L4.54769 7.76015C4.77683 7.83066 4.96852 7.8593 5.12276 7.84608C5.27699 7.82845 5.43563 7.74473 5.59868 7.5949L12.9556 0.773371C12.9997 0.733711 13.046 0.713881 13.0944 0.713881C13.1473 0.713881 13.1936 0.731508 13.2332 0.766761C13.2685 0.802014 13.2861 0.846081 13.2861 0.898961C13.2861 0.947435 13.2641 0.993705 13.22 1.03777L6.42493 8.41454C6.28392 8.56437 6.20239 8.7186 6.18036 8.87724C6.16273 9.03588 6.18697 9.23198 6.25307 9.46553L7.27101 12.8234C7.37236 13.1627 7.49795 13.4426 7.64778 13.6629C7.79761 13.8876 8.03116 14 8.34844 14Z" fill="#7F7F7F"/>
</svg>
