<svg width="48" height="48" viewBox="0 0 48 48" fill="none" xmlns="http://www.w3.org/2000/svg">
    <rect width="48" height="48" rx="8" fill="#353739"/>
    <path d="M19.3438 30.6484H28.4453C29.1953 30.6484 29.776 30.4323 30.1875 30C30.6042 29.5729 30.8125 28.9427 30.8125 28.1094V19.8516L29.2734 21.3828V27.9766C29.2734 28.3568 29.1849 28.6406 29.0078 28.8281C28.8307 29.0156 28.612 29.1094 28.3516 29.1094H19.4375C19.0729 29.1094 18.7943 29.0156 18.6016 28.8281C18.4089 28.6406 18.3125 28.3568 18.3125 27.9766V19.2812C18.3125 18.901 18.4089 18.6172 18.6016 18.4297C18.7943 18.237 19.0729 18.1406 19.4375 18.1406H26.1094L27.6406 16.6094H19.3438C18.5 16.6094 17.8594 16.8229 17.4219 17.25C16.9896 17.6771 16.7734 18.3099 16.7734 19.1484V28.1094C16.7734 28.9427 16.9896 29.5729 17.4219 30C17.8594 30.4323 18.5 30.6484 19.3438 30.6484ZM22.2891 25.4219L23.8828 24.75L30.9922 17.6484L29.7969 16.4688L22.6953 23.5703L21.9922 25.1172C21.9557 25.2057 21.974 25.2891 22.0469 25.3672C22.1198 25.4401 22.2005 25.4583 22.2891 25.4219ZM31.5625 17.0859L32.1484 16.4766C32.2943 16.3203 32.3698 16.1458 32.375 15.9531C32.3854 15.7604 32.3151 15.5911 32.1641 15.4453L31.9609 15.2344C31.8307 15.1042 31.6693 15.0469 31.4766 15.0625C31.2839 15.0781 31.1146 15.1562 30.9688 15.2969L30.3672 15.8906L31.5625 17.0859Z" fill="#7F7F7F"/>
</svg>
