<svg width="16" height="15" viewBox="0 0 16 15" fill="none" xmlns="http://www.w3.org/2000/svg">
    <path d="M3.34766 14.7637C3.50716 14.8913 3.68717 14.9368 3.8877 14.9004C4.08822 14.8639 4.30241 14.7637 4.53027 14.5996L8.08496 11.9814L11.6465 14.5996C11.8743 14.7637 12.0885 14.8639 12.2891 14.9004C12.4896 14.9368 12.6696 14.8913 12.8291 14.7637C12.9886 14.6452 13.0843 14.4857 13.1162 14.2852C13.1527 14.0892 13.1253 13.8568 13.0342 13.5879L11.626 9.41113L15.2148 6.83398C15.4473 6.66992 15.609 6.49902 15.7002 6.32129C15.7913 6.139 15.805 5.95215 15.7412 5.76074C15.6774 5.57389 15.5566 5.4349 15.3789 5.34375C15.2012 5.24805 14.9688 5.20247 14.6816 5.20703L10.2861 5.23438L8.94629 1.03711C8.8597 0.763672 8.74349 0.556315 8.59766 0.415039C8.45638 0.269206 8.28548 0.196289 8.08496 0.196289C7.889 0.196289 7.7181 0.269206 7.57227 0.415039C7.43099 0.556315 7.31706 0.763672 7.23047 1.03711L5.89062 5.23438L1.49512 5.20703C1.20801 5.20247 0.975586 5.24805 0.797852 5.34375C0.620117 5.4349 0.499349 5.57389 0.435547 5.76074C0.371745 5.95215 0.385417 6.139 0.476562 6.32129C0.567708 6.49902 0.729492 6.66992 0.961914 6.83398L4.55078 9.41113L3.14258 13.5879C3.05143 13.8568 3.02181 14.0892 3.05371 14.2852C3.09017 14.4857 3.18815 14.6452 3.34766 14.7637Z" fill="#7F7F7F"/>
</svg>
