<svg width="622" height="21" viewBox="0 0 622 21" fill="none" xmlns="http://www.w3.org/2000/svg">
    <path d="M370.555 19.6484H383.93C384.779 19.6484 385.419 19.4323 385.852 19C386.284 18.5729 386.5 17.9427 386.5 17.1094V12.8828C386.5 12.4922 386.469 12.1797 386.406 11.9453C386.349 11.7109 386.227 11.4714 386.039 11.2266L383.555 7.92969C383.232 7.50781 382.948 7.1875 382.703 6.96875C382.464 6.75 382.198 6.60156 381.906 6.52344C381.615 6.44531 381.232 6.40625 380.758 6.40625H379.414V7.69531H380.82C381.086 7.69531 381.315 7.73438 381.508 7.8125C381.706 7.88542 381.901 8.05208 382.094 8.3125L384.672 11.7734C384.802 11.9557 384.846 12.0859 384.805 12.1641C384.763 12.2422 384.643 12.2812 384.445 12.2812H379.766C379.536 12.2812 379.37 12.349 379.266 12.4844C379.161 12.6198 379.109 12.7708 379.109 12.9375V12.9688C379.109 13.276 379.034 13.5755 378.883 13.8672C378.732 14.1589 378.516 14.3984 378.234 14.5859C377.958 14.7734 377.628 14.8672 377.242 14.8672C376.862 14.8672 376.531 14.7734 376.25 14.5859C375.974 14.3984 375.76 14.1589 375.609 13.8672C375.458 13.5755 375.383 13.276 375.383 12.9688V12.9375C375.383 12.7708 375.328 12.6198 375.219 12.4844C375.115 12.349 374.948 12.2812 374.719 12.2812H370.062C369.854 12.2812 369.729 12.2396 369.688 12.1562C369.651 12.0729 369.698 11.9453 369.828 11.7734L372.383 8.33594C372.586 8.07031 372.784 7.89844 372.977 7.82031C373.174 7.73698 373.406 7.69531 373.672 7.69531H375.078V6.40625H373.734C373.26 6.40625 372.875 6.44531 372.578 6.52344C372.286 6.60156 372.018 6.7526 371.773 6.97656C371.534 7.19531 371.253 7.52083 370.93 7.95312L368.445 11.2266C368.263 11.4714 368.141 11.7109 368.078 11.9453C368.021 12.1797 367.992 12.4922 367.992 12.8828V17.1094C367.992 17.9479 368.208 18.5807 368.641 19.0078C369.073 19.4349 369.711 19.6484 370.555 19.6484ZM377.242 12.5859C377.44 12.5859 377.612 12.5156 377.758 12.375C377.904 12.2344 377.977 12.0677 377.977 11.875V4.32812L377.906 3.17188L378.398 3.73438L379.484 4.90625C379.615 5.04688 379.779 5.11719 379.977 5.11719C380.154 5.11719 380.305 5.0599 380.43 4.94531C380.555 4.82552 380.617 4.67708 380.617 4.5C380.617 4.32812 380.549 4.17188 380.414 4.03125L377.797 1.50781C377.703 1.41406 377.609 1.34896 377.516 1.3125C377.427 1.27604 377.336 1.25781 377.242 1.25781C377.148 1.25781 377.057 1.27604 376.969 1.3125C376.88 1.34896 376.789 1.41406 376.695 1.50781L374.07 4.03125C373.935 4.17188 373.867 4.32812 373.867 4.5C373.867 4.67708 373.93 4.82552 374.055 4.94531C374.18 5.0599 374.331 5.11719 374.508 5.11719C374.711 5.11719 374.875 5.04688 375 4.90625L376.094 3.73438L376.578 3.16406L376.523 4.32812V11.875C376.523 12.0677 376.594 12.2344 376.734 12.375C376.875 12.5156 377.044 12.5859 377.242 12.5859Z" fill="#7F7F7F"/>
    <path d="M398.258 17H399.406V9.4668H400.008L398.634 7.40918L402.599 17H403.638L407.609 7.40918L406.229 9.4668H406.83V17H407.979V7.13574H406.55L403.173 15.3662H403.063L399.687 7.13574H398.258V17ZM413.372 17.1299C414.074 17.1299 414.678 16.9772 415.184 16.6719C415.689 16.362 416.079 15.9222 416.353 15.3525C416.631 14.7829 416.77 14.1061 416.77 13.3223V13.3086C416.77 12.5202 416.631 11.8411 416.353 11.2715C416.079 10.7018 415.689 10.2643 415.184 9.95898C414.678 9.65365 414.074 9.50098 413.372 9.50098C412.675 9.50098 412.071 9.65365 411.561 9.95898C411.055 10.2643 410.663 10.7018 410.385 11.2715C410.111 11.8411 409.975 12.5202 409.975 13.3086V13.3223C409.975 14.1061 410.111 14.7829 410.385 15.3525C410.663 15.9222 411.055 16.362 411.561 16.6719C412.071 16.9772 412.675 17.1299 413.372 17.1299ZM413.372 16.0771C412.907 16.0771 412.513 15.9678 412.189 15.749C411.866 15.5303 411.618 15.2158 411.444 14.8057C411.276 14.3955 411.191 13.901 411.191 13.3223V13.3086C411.191 12.7253 411.276 12.2285 411.444 11.8184C411.618 11.4082 411.866 11.096 412.189 10.8818C412.513 10.6631 412.907 10.5537 413.372 10.5537C413.837 10.5537 414.231 10.6631 414.555 10.8818C414.878 11.096 415.124 11.4082 415.293 11.8184C415.466 12.2285 415.553 12.7253 415.553 13.3086V13.3223C415.553 13.901 415.466 14.3955 415.293 14.8057C415.124 15.2158 414.878 15.5303 414.555 15.749C414.231 15.9678 413.837 16.0771 413.372 16.0771ZM420.427 17H421.63L424.357 9.63086H423.1L421.083 15.7012H420.974L418.957 9.63086H417.699L420.427 17ZM428.664 17.1299C429.097 17.1299 429.487 17.0752 429.833 16.9658C430.184 16.8519 430.487 16.7015 430.742 16.5146C430.997 16.3232 431.205 16.1113 431.364 15.8789C431.528 15.6419 431.642 15.3981 431.706 15.1475L431.72 15.0928H430.53L430.503 15.1543C430.439 15.3001 430.327 15.4437 430.168 15.585C430.008 15.7262 429.806 15.8424 429.56 15.9336C429.313 16.0247 429.024 16.0703 428.691 16.0703C428.245 16.0703 427.857 15.9723 427.529 15.7764C427.201 15.5758 426.948 15.291 426.771 14.9219C426.593 14.5482 426.504 14.0993 426.504 13.5752V13.1035C426.504 12.5521 426.595 12.0872 426.777 11.709C426.96 11.3307 427.206 11.0459 427.516 10.8545C427.83 10.6585 428.186 10.5605 428.582 10.5605C428.979 10.5605 429.329 10.654 429.635 10.8408C429.94 11.0231 430.179 11.3011 430.353 11.6748C430.526 12.0485 430.612 12.5247 430.612 13.1035V13.5752L431.2 12.707H425.902V13.6572H431.809V13.1924C431.809 12.4587 431.679 11.8161 431.419 11.2646C431.164 10.7087 430.795 10.2757 430.312 9.96582C429.833 9.65592 429.259 9.50098 428.589 9.50098C427.924 9.50098 427.342 9.66276 426.846 9.98633C426.349 10.3099 425.964 10.7588 425.69 11.333C425.422 11.9072 425.287 12.5749 425.287 13.3359V13.3428C425.287 14.113 425.422 14.7829 425.69 15.3525C425.964 15.9176 426.351 16.3551 426.853 16.665C427.358 16.9749 427.962 17.1299 428.664 17.1299ZM440.21 17.0547C440.328 17.0547 440.445 17.0479 440.559 17.0342C440.673 17.0205 440.786 17.0046 440.9 16.9863V15.9746C440.791 15.9837 440.698 15.9906 440.62 15.9951C440.547 15.9997 440.458 16.002 440.354 16.002C439.971 16.002 439.697 15.9085 439.533 15.7217C439.369 15.5303 439.287 15.2181 439.287 14.7852V10.6152H440.9V9.63086H439.287V7.72363H438.057V9.63086H436.895V10.6152H438.057V15.0859C438.057 15.7878 438.225 16.2913 438.562 16.5967C438.904 16.902 439.453 17.0547 440.21 17.0547ZM445.61 17.1299C446.312 17.1299 446.916 16.9772 447.422 16.6719C447.928 16.362 448.317 15.9222 448.591 15.3525C448.869 14.7829 449.008 14.1061 449.008 13.3223V13.3086C449.008 12.5202 448.869 11.8411 448.591 11.2715C448.317 10.7018 447.928 10.2643 447.422 9.95898C446.916 9.65365 446.312 9.50098 445.61 9.50098C444.913 9.50098 444.309 9.65365 443.799 9.95898C443.293 10.2643 442.901 10.7018 442.623 11.2715C442.35 11.8411 442.213 12.5202 442.213 13.3086V13.3223C442.213 14.1061 442.35 14.7829 442.623 15.3525C442.901 15.9222 443.293 16.362 443.799 16.6719C444.309 16.9772 444.913 17.1299 445.61 17.1299ZM445.61 16.0771C445.146 16.0771 444.751 15.9678 444.428 15.749C444.104 15.5303 443.856 15.2158 443.683 14.8057C443.514 14.3955 443.43 13.901 443.43 13.3223V13.3086C443.43 12.7253 443.514 12.2285 443.683 11.8184C443.856 11.4082 444.104 11.096 444.428 10.8818C444.751 10.6631 445.146 10.5537 445.61 10.5537C446.075 10.5537 446.469 10.6631 446.793 10.8818C447.117 11.096 447.363 11.4082 447.531 11.8184C447.704 12.2285 447.791 12.7253 447.791 13.3086V13.3223C447.791 13.901 447.704 14.3955 447.531 14.8057C447.363 15.2158 447.117 15.5303 446.793 15.749C446.469 15.9678 446.075 16.0771 445.61 16.0771ZM451.688 17.0684C451.934 17.0684 452.143 16.9818 452.316 16.8086C452.49 16.6309 452.576 16.4212 452.576 16.1797C452.576 15.9336 452.49 15.724 452.316 15.5508C452.143 15.3776 451.934 15.291 451.688 15.291C451.446 15.291 451.236 15.3776 451.059 15.5508C450.885 15.724 450.799 15.9336 450.799 16.1797C450.799 16.4212 450.885 16.6309 451.059 16.8086C451.236 16.9818 451.446 17.0684 451.688 17.0684ZM455.844 17.0684C456.09 17.0684 456.299 16.9818 456.473 16.8086C456.646 16.6309 456.732 16.4212 456.732 16.1797C456.732 15.9336 456.646 15.724 456.473 15.5508C456.299 15.3776 456.09 15.291 455.844 15.291C455.602 15.291 455.393 15.3776 455.215 15.5508C455.042 15.724 454.955 15.9336 454.955 16.1797C454.955 16.4212 455.042 16.6309 455.215 16.8086C455.393 16.9818 455.602 17.0684 455.844 17.0684Z" fill="#7F7F7F"/>
    <path d="M5.60156 17.6641H14.1641C14.9714 17.6641 15.5885 17.4531 16.0156 17.0312C16.4427 16.6146 16.6562 16.0052 16.6562 15.2031V7.91406H3.10938V15.2031C3.10938 16.0104 3.32292 16.6224 3.75 17.0391C4.17708 17.4557 4.79427 17.6641 5.60156 17.6641ZM7.36719 10.8906C7.17969 10.8906 7.02604 10.8307 6.90625 10.7109C6.79167 10.5911 6.73438 10.4349 6.73438 10.2422V10C6.73438 9.80729 6.79167 9.65365 6.90625 9.53906C7.02604 9.41927 7.17969 9.35938 7.36719 9.35938H12.4062C12.5938 9.35938 12.7474 9.41927 12.8672 9.53906C12.987 9.65365 13.0469 9.80729 13.0469 10V10.2422C13.0469 10.4349 12.987 10.5911 12.8672 10.7109C12.7474 10.8307 12.5938 10.8906 12.4062 10.8906H7.36719ZM3.41406 6.77344H16.3594C16.8281 6.77344 17.1797 6.64323 17.4141 6.38281C17.6536 6.1224 17.7734 5.76042 17.7734 5.29688V4.55469C17.7734 4.09115 17.6536 3.72917 17.4141 3.46875C17.1797 3.20833 16.8281 3.07812 16.3594 3.07812H3.41406C2.96615 3.07812 2.61719 3.20833 2.36719 3.46875C2.11719 3.72917 1.99219 4.09115 1.99219 4.55469V5.29688C1.99219 5.76042 2.10938 6.1224 2.34375 6.38281C2.58333 6.64323 2.9401 6.77344 3.41406 6.77344Z" fill="#7F7F7F"/>
    <path d="M81.2031 18.1953H88.6016C89.1328 18.1953 89.5469 18.0547 89.8438 17.7734C90.1458 17.4974 90.3099 17.0964 90.3359 16.5703L90.8281 5.27344H91.9141C92.1068 5.27344 92.2708 5.20573 92.4062 5.07031C92.5417 4.9349 92.6094 4.77083 92.6094 4.57812C92.6094 4.38542 92.5417 4.22396 92.4062 4.09375C92.2708 3.96354 92.1068 3.89844 91.9141 3.89844H77.8906C77.6979 3.89844 77.5339 3.96615 77.3984 4.10156C77.263 4.23177 77.1953 4.39062 77.1953 4.57812C77.1953 4.77083 77.263 4.9349 77.3984 5.07031C77.5339 5.20573 77.6979 5.27344 77.8906 5.27344H78.9844L79.4766 16.5703C79.5026 17.0964 79.6641 17.4974 79.9609 17.7734C80.2578 18.0547 80.6719 18.1953 81.2031 18.1953ZM82.3984 15.8047C82.2474 15.8047 82.1198 15.7604 82.0156 15.6719C81.9167 15.5781 81.8672 15.4531 81.8672 15.2969L81.625 6.98438C81.625 6.82812 81.6719 6.70312 81.7656 6.60938C81.8646 6.51562 81.9974 6.46875 82.1641 6.46875C82.3151 6.46875 82.4401 6.51562 82.5391 6.60938C82.6432 6.70312 82.6979 6.82552 82.7031 6.97656L82.9375 15.2891C82.9427 15.4453 82.8958 15.5703 82.7969 15.6641C82.6979 15.7578 82.5651 15.8047 82.3984 15.8047ZM84.9062 15.8047C84.7396 15.8047 84.6042 15.7578 84.5 15.6641C84.401 15.5703 84.3516 15.4479 84.3516 15.2969V6.97656C84.3516 6.82552 84.401 6.70312 84.5 6.60938C84.6042 6.51562 84.7396 6.46875 84.9062 6.46875C85.0677 6.46875 85.1979 6.51562 85.2969 6.60938C85.401 6.70312 85.4531 6.82552 85.4531 6.97656V15.2969C85.4531 15.4479 85.401 15.5703 85.2969 15.6641C85.1979 15.7578 85.0677 15.8047 84.9062 15.8047ZM87.4062 15.8047C87.2396 15.8047 87.1068 15.7578 87.0078 15.6641C86.9089 15.5703 86.862 15.4453 86.8672 15.2891L87.1016 6.97656C87.1068 6.82552 87.1589 6.70312 87.2578 6.60938C87.362 6.51562 87.4896 6.46875 87.6406 6.46875C87.8073 6.46875 87.9375 6.51562 88.0312 6.60938C88.1302 6.70312 88.1797 6.82812 88.1797 6.98438L87.9375 15.2969C87.9375 15.4531 87.8854 15.5781 87.7812 15.6719C87.6823 15.7604 87.5573 15.8047 87.4062 15.8047ZM81.2734 4.17188H82.8828V2.79688C82.8828 2.61979 82.9375 2.47917 83.0469 2.375C83.1615 2.26562 83.3177 2.21094 83.5156 2.21094H86.2812C86.4792 2.21094 86.6328 2.26562 86.7422 2.375C86.8568 2.47917 86.9141 2.61979 86.9141 2.79688V4.17188H88.5234V2.72656C88.5234 2.10677 88.3333 1.6224 87.9531 1.27344C87.5729 0.919271 87.0469 0.742188 86.375 0.742188H83.4141C82.7422 0.742188 82.2161 0.919271 81.8359 1.27344C81.4609 1.6224 81.2734 2.10677 81.2734 2.72656V4.17188Z" fill="#7F7F7F"/>
    <line x1="106.5" y1="5" x2="106.5" y2="16" stroke="#F8FAFC" stroke-opacity="0.2" stroke-linecap="round"/>
    <path d="M125.336 17.6641H133.633C134.44 17.6641 135.029 17.4531 135.398 17.0312C135.768 16.6094 136.016 16 136.141 15.2031L137.242 7.90625H121.727L122.836 15.2031C122.956 16.0052 123.201 16.6146 123.57 17.0312C123.945 17.4531 124.534 17.6641 125.336 17.6641ZM121.367 6.77344H137.602C138.049 6.77344 138.391 6.64844 138.625 6.39844C138.865 6.14323 138.984 5.78906 138.984 5.33594V4.51562C138.984 4.0625 138.865 3.71094 138.625 3.46094C138.391 3.20573 138.049 3.07812 137.602 3.07812H121.367C120.94 3.07812 120.604 3.20573 120.359 3.46094C120.115 3.71094 119.992 4.0625 119.992 4.51562V5.33594C119.992 5.78906 120.109 6.14323 120.344 6.39844C120.578 6.64844 120.919 6.77344 121.367 6.77344ZM127.234 15.5078C127.047 15.5078 126.883 15.4375 126.742 15.2969C126.607 15.1562 126.539 14.9922 126.539 14.8047C126.539 14.6224 126.612 14.4609 126.758 14.3203L128.508 12.5469L126.758 10.7891C126.612 10.6432 126.539 10.4792 126.539 10.2969C126.539 10.1094 126.609 9.95052 126.75 9.82031C126.891 9.6849 127.052 9.61719 127.234 9.61719C127.333 9.61719 127.419 9.63542 127.492 9.67188C127.57 9.70833 127.646 9.75781 127.719 9.82031L129.492 11.5859L131.266 9.8125C131.422 9.67188 131.583 9.60156 131.75 9.60156C131.938 9.60156 132.102 9.67188 132.242 9.8125C132.383 9.94792 132.453 10.1094 132.453 10.2969C132.453 10.3958 132.432 10.4818 132.391 10.5547C132.354 10.6276 132.302 10.7031 132.234 10.7812L130.469 12.5469L132.227 14.3125C132.289 14.3802 132.341 14.4531 132.383 14.5312C132.424 14.6094 132.445 14.7005 132.445 14.8047C132.445 14.9922 132.375 15.1562 132.234 15.2969C132.094 15.4375 131.932 15.5078 131.75 15.5078C131.651 15.5078 131.56 15.487 131.477 15.4453C131.393 15.4036 131.318 15.3516 131.25 15.2891L129.492 13.5234L127.727 15.2891C127.586 15.4349 127.422 15.5078 127.234 15.5078Z" fill="#7F7F7F"/>
    <path d="M205.906 17.625C206.208 17.625 206.458 17.526 206.656 17.3281C206.854 17.1302 206.953 16.8828 206.953 16.5859V13.7656H207.148C208.107 13.7656 208.948 13.8672 209.672 14.0703C210.396 14.2734 211.029 14.6042 211.57 15.0625C212.117 15.5208 212.596 16.1354 213.008 16.9062C213.164 17.1875 213.333 17.3724 213.516 17.4609C213.703 17.5495 213.898 17.5938 214.102 17.5938C214.372 17.5938 214.599 17.4688 214.781 17.2188C214.969 16.974 215.062 16.6094 215.062 16.125C215.062 14.7083 214.904 13.4375 214.586 12.3125C214.268 11.1823 213.784 10.2188 213.133 9.42188C212.487 8.625 211.667 8.01823 210.672 7.60156C209.677 7.17969 208.503 6.96875 207.148 6.96875H206.953V4.17188C206.953 3.875 206.854 3.6224 206.656 3.41406C206.458 3.20052 206.203 3.09375 205.891 3.09375C205.682 3.09375 205.495 3.14062 205.328 3.23438C205.161 3.32292 204.966 3.47396 204.742 3.6875L198.555 9.45312C198.398 9.59375 198.289 9.74479 198.227 9.90625C198.164 10.0625 198.133 10.2135 198.133 10.3594C198.133 10.5 198.164 10.651 198.227 10.8125C198.289 10.974 198.398 11.125 198.555 11.2656L204.742 17.0781C204.945 17.2708 205.135 17.4089 205.312 17.4922C205.495 17.5807 205.693 17.625 205.906 17.625Z" fill="#7F7F7F"/>
    <line x1="229.5" y1="5" x2="229.5" y2="16" stroke="#F8FAFC" stroke-opacity="0.2" stroke-linecap="round"/>
    <path d="M254.141 17.625C254.443 17.625 254.693 17.5234 254.891 17.3203C255.089 17.1224 255.188 16.875 255.188 16.5781V13.7656H255.383C256.341 13.7656 257.182 13.8672 257.906 14.0703C258.63 14.2682 259.266 14.5964 259.812 15.0547C260.359 15.513 260.839 16.1276 261.25 16.8984C261.401 17.1797 261.568 17.3646 261.75 17.4531C261.938 17.5417 262.133 17.5859 262.336 17.5859C262.607 17.5859 262.833 17.4609 263.016 17.2109C263.203 16.9661 263.297 16.6042 263.297 16.125C263.297 14.7031 263.138 13.4297 262.82 12.3047C262.503 11.1745 262.018 10.2135 261.367 9.42188C260.721 8.625 259.901 8.01823 258.906 7.60156C257.911 7.17969 256.737 6.96875 255.383 6.96875H255.188V4.16406C255.188 3.86719 255.089 3.61458 254.891 3.40625C254.693 3.19271 254.44 3.08594 254.133 3.08594C253.924 3.08594 253.734 3.13281 253.562 3.22656C253.396 3.3151 253.201 3.46615 252.977 3.67969L246.789 9.44531C246.638 9.58073 246.529 9.72917 246.461 9.89062C246.398 10.0469 246.367 10.2005 246.367 10.3516C246.367 10.5026 246.401 10.6589 246.469 10.8203C246.536 10.9766 246.643 11.1224 246.789 11.2578L252.977 17.0703C253.18 17.263 253.372 17.4036 253.555 17.4922C253.737 17.5807 253.932 17.625 254.141 17.625ZM250.023 17.625C250.294 17.625 250.521 17.5573 250.703 17.4219C250.891 17.2865 250.997 17.125 251.023 16.9375V16.7188L245.992 12.0781C245.742 11.849 245.544 11.5859 245.398 11.2891C245.258 10.9922 245.188 10.6823 245.188 10.3594C245.188 10.0365 245.258 9.72917 245.398 9.4375C245.539 9.14062 245.737 8.875 245.992 8.64062L251.023 4.03125V3.8125C250.997 3.61979 250.891 3.45312 250.703 3.3125C250.516 3.16667 250.284 3.09375 250.008 3.09375C249.799 3.09375 249.612 3.14062 249.445 3.23438C249.279 3.32292 249.081 3.47396 248.852 3.6875L242.664 9.45312C242.513 9.59375 242.406 9.74479 242.344 9.90625C242.281 10.0625 242.25 10.2135 242.25 10.3594C242.25 10.5 242.281 10.651 242.344 10.8125C242.406 10.974 242.513 11.125 242.664 11.2656L248.852 17.0781C249.055 17.2708 249.247 17.4089 249.43 17.4922C249.612 17.5807 249.81 17.625 250.023 17.625Z" fill="#7F7F7F"/>
    <line x1="278.5" y1="5" x2="278.5" y2="16" stroke="#F8FAFC" stroke-opacity="0.2" stroke-linecap="round"/>
    <path d="M301.016 17.625C301.219 17.625 301.411 17.5807 301.594 17.4922C301.781 17.4089 301.977 17.2708 302.18 17.0781L308.367 11.2656C308.518 11.125 308.625 10.974 308.688 10.8125C308.755 10.651 308.789 10.5 308.789 10.3594C308.789 10.2135 308.755 10.0625 308.688 9.90625C308.625 9.74479 308.518 9.59375 308.367 9.45312L302.18 3.6875C301.956 3.47396 301.758 3.32292 301.586 3.23438C301.419 3.14062 301.232 3.09375 301.023 3.09375C300.716 3.09375 300.461 3.20052 300.258 3.41406C300.06 3.6224 299.961 3.875 299.961 4.17188V6.96875H299.766C298.411 6.96875 297.237 7.17969 296.242 7.60156C295.253 8.01823 294.432 8.625 293.781 9.42188C293.135 10.2188 292.654 11.1823 292.336 12.3125C292.018 13.4375 291.859 14.7083 291.859 16.125C291.859 16.6094 291.951 16.974 292.133 17.2188C292.32 17.4688 292.549 17.5938 292.82 17.5938C293.023 17.5938 293.216 17.5495 293.398 17.4609C293.586 17.3724 293.755 17.1875 293.906 16.9062C294.318 16.1354 294.797 15.5208 295.344 15.0625C295.891 14.6042 296.526 14.2734 297.25 14.0703C297.974 13.8672 298.812 13.7656 299.766 13.7656H299.961V16.5859C299.961 16.8828 300.06 17.1302 300.258 17.3281C300.461 17.526 300.714 17.625 301.016 17.625Z" fill="#7F7F7F"/>
    <path d="M573.469 18.4297C574.573 18.4297 575.612 18.2188 576.586 17.7969C577.56 17.3802 578.419 16.7995 579.164 16.0547C579.909 15.3099 580.492 14.4505 580.914 13.4766C581.336 12.5026 581.547 11.4635 581.547 10.3594C581.547 9.25521 581.336 8.21615 580.914 7.24219C580.492 6.26823 579.909 5.41146 579.164 4.67188C578.419 3.92708 577.56 3.34375 576.586 2.92188C575.612 2.5 574.57 2.28906 573.461 2.28906C572.357 2.28906 571.318 2.5 570.344 2.92188C569.375 3.34375 568.518 3.92708 567.773 4.67188C567.034 5.41146 566.453 6.26823 566.031 7.24219C565.609 8.21615 565.398 9.25521 565.398 10.3594C565.398 11.4635 565.609 12.5026 566.031 13.4766C566.453 14.4505 567.034 15.3099 567.773 16.0547C568.518 16.7995 569.378 17.3802 570.352 17.7969C571.326 18.2188 572.365 18.4297 573.469 18.4297ZM573.469 16.8359C572.573 16.8359 571.732 16.6693 570.945 16.3359C570.164 16.0026 569.477 15.5391 568.883 14.9453C568.294 14.3516 567.833 13.6641 567.5 12.8828C567.167 12.1016 567 11.2604 567 10.3594C567 9.46354 567.167 8.625 567.5 7.84375C567.833 7.05729 568.294 6.36719 568.883 5.77344C569.471 5.17969 570.156 4.71615 570.938 4.38281C571.724 4.04948 572.565 3.88281 573.461 3.88281C574.362 3.88281 575.203 4.04948 575.984 4.38281C576.766 4.71615 577.453 5.17969 578.047 5.77344C578.646 6.36719 579.112 7.05729 579.445 7.84375C579.779 8.625 579.945 9.46354 579.945 10.3594C579.945 11.2604 579.779 12.1016 579.445 12.8828C579.112 13.6641 578.648 14.3516 578.055 14.9453C577.466 15.5391 576.779 16.0026 575.992 16.3359C575.211 16.6693 574.37 16.8359 573.469 16.8359ZM573.297 11.9141C573.51 11.9141 573.68 11.8594 573.805 11.75C573.935 11.6406 574.005 11.5078 574.016 11.3516C574.021 11.3359 574.023 11.3203 574.023 11.3047C574.023 11.2839 574.023 11.2682 574.023 11.2578C574.034 11.0547 574.107 10.8776 574.242 10.7266C574.378 10.5755 574.576 10.4167 574.836 10.25C575.216 9.99479 575.521 9.73438 575.75 9.46875C575.984 9.20312 576.102 8.84115 576.102 8.38281C576.102 7.95052 575.984 7.58333 575.75 7.28125C575.516 6.97917 575.203 6.7474 574.812 6.58594C574.427 6.42448 574.005 6.34375 573.547 6.34375C572.875 6.34375 572.32 6.47656 571.883 6.74219C571.451 7.00781 571.174 7.32292 571.055 7.6875C571.029 7.75521 571.008 7.82292 570.992 7.89062C570.982 7.95312 570.977 8.02083 570.977 8.09375C570.977 8.28125 571.039 8.42969 571.164 8.53906C571.289 8.64844 571.432 8.70312 571.594 8.70312C571.734 8.70312 571.854 8.67448 571.953 8.61719C572.057 8.5599 572.146 8.48177 572.219 8.38281L572.344 8.21875C572.432 8.07812 572.531 7.96094 572.641 7.86719C572.755 7.76823 572.878 7.69271 573.008 7.64062C573.143 7.58854 573.289 7.5625 573.445 7.5625C573.763 7.5625 574.018 7.64844 574.211 7.82031C574.409 7.98698 574.508 8.20312 574.508 8.46875C574.508 8.71354 574.424 8.91667 574.258 9.07812C574.096 9.23958 573.849 9.4349 573.516 9.66406C573.234 9.85677 573.003 10.0651 572.82 10.2891C572.643 10.513 572.555 10.8047 572.555 11.1641C572.555 11.1745 572.555 11.1875 572.555 11.2031C572.555 11.2188 572.555 11.2344 572.555 11.25C572.555 11.6927 572.802 11.9141 573.297 11.9141ZM573.281 14.3125C573.536 14.3125 573.753 14.2318 573.93 14.0703C574.107 13.9089 574.195 13.7031 574.195 13.4531C574.195 13.2031 574.107 12.9974 573.93 12.8359C573.753 12.6745 573.536 12.5938 573.281 12.5938C573.026 12.5938 572.81 12.6771 572.633 12.8438C572.456 13.0052 572.367 13.2083 572.367 13.4531C572.367 13.6979 572.456 13.9036 572.633 14.0703C572.815 14.2318 573.031 14.3125 573.281 14.3125Z" fill="#7F7F7F"/>
    <path d="M610.984 18.6562H612.414C612.648 18.6562 612.846 18.5911 613.008 18.4609C613.169 18.3359 613.276 18.1589 613.328 17.9297L613.719 16.2656C613.854 16.2188 613.984 16.1693 614.109 16.1172C614.24 16.0703 614.362 16.0208 614.477 15.9688L615.93 16.8516C616.122 16.9714 616.323 17.0208 616.531 17C616.74 16.9844 616.924 16.8958 617.086 16.7344L618.086 15.7422C618.247 15.5807 618.339 15.3932 618.359 15.1797C618.38 14.9609 618.326 14.7552 618.195 14.5625L617.305 13.125C617.367 13.0052 617.422 12.8854 617.469 12.7656C617.516 12.6406 617.56 12.5156 617.602 12.3906L619.281 11.9922C619.505 11.9453 619.68 11.8411 619.805 11.6797C619.935 11.513 620 11.3125 620 11.0781V9.67969C620 9.45052 619.935 9.25521 619.805 9.09375C619.68 8.92708 619.505 8.82031 619.281 8.77344L617.617 8.375C617.57 8.23438 617.521 8.10156 617.469 7.97656C617.417 7.85156 617.367 7.73438 617.32 7.625L618.211 6.16406C618.336 5.97135 618.391 5.77083 618.375 5.5625C618.359 5.35417 618.268 5.16927 618.102 5.00781L617.078 4C616.917 3.85417 616.737 3.76823 616.539 3.74219C616.346 3.71615 616.154 3.75781 615.961 3.86719L614.477 4.78125C614.367 4.72396 614.247 4.67188 614.117 4.625C613.992 4.57292 613.859 4.52344 613.719 4.47656L613.328 2.78906C613.276 2.5651 613.169 2.38802 613.008 2.25781C612.846 2.1224 612.648 2.05469 612.414 2.05469H610.984C610.755 2.05469 610.557 2.1224 610.391 2.25781C610.229 2.38802 610.122 2.5651 610.07 2.78906L609.68 4.46094C609.544 4.50781 609.411 4.55729 609.281 4.60938C609.151 4.66146 609.029 4.71615 608.914 4.77344L607.438 3.86719C607.245 3.75781 607.049 3.71615 606.852 3.74219C606.659 3.76302 606.479 3.85156 606.312 4.00781L605.305 5.00781C605.138 5.16927 605.044 5.35417 605.023 5.5625C605.008 5.77083 605.062 5.97135 605.188 6.16406L606.07 7.625C606.023 7.73438 605.974 7.85156 605.922 7.97656C605.87 8.10156 605.823 8.23438 605.781 8.375L604.125 8.77344C603.896 8.82031 603.716 8.92708 603.586 9.09375C603.461 9.25521 603.398 9.45052 603.398 9.67969V11.0781C603.398 11.3125 603.461 11.513 603.586 11.6797C603.716 11.8411 603.896 11.9453 604.125 11.9922L605.797 12.3906C605.833 12.5156 605.878 12.6406 605.93 12.7656C605.982 12.8854 606.034 13.0052 606.086 13.125L605.203 14.5625C605.078 14.7552 605.026 14.9609 605.047 15.1797C605.068 15.3932 605.159 15.5807 605.32 15.7422L606.312 16.7344C606.474 16.8958 606.659 16.9844 606.867 17C607.076 17.0208 607.276 16.9714 607.469 16.8516L608.922 15.9688C609.036 16.0208 609.156 16.0703 609.281 16.1172C609.411 16.1693 609.544 16.2188 609.68 16.2656L610.07 17.9297C610.122 18.1589 610.229 18.3359 610.391 18.4609C610.557 18.5911 610.755 18.6562 610.984 18.6562ZM611.703 13.0938C611.203 13.0938 610.745 12.9714 610.328 12.7266C609.911 12.4766 609.581 12.1432 609.336 11.7266C609.091 11.3099 608.969 10.8516 608.969 10.3516C608.969 9.85156 609.091 9.39583 609.336 8.98438C609.586 8.57292 609.917 8.24479 610.328 8C610.745 7.75 611.203 7.625 611.703 7.625C612.203 7.625 612.659 7.75 613.07 8C613.487 8.24479 613.818 8.57292 614.062 8.98438C614.307 9.39583 614.43 9.85156 614.43 10.3516C614.43 10.8516 614.307 11.3099 614.062 11.7266C613.818 12.1432 613.487 12.4766 613.07 12.7266C612.659 12.9714 612.203 13.0938 611.703 13.0938Z" fill="#7F7F7F"/>
</svg>
