<svg width="17" height="14" viewBox="0 0 17 14" fill="none" xmlns="http://www.w3.org/2000/svg">
    <path d="M0.743164 11.1455C0.743164 11.8747 0.932292 12.4261 1.31055 12.7998C1.6888 13.1781 2.24707 13.3672 2.98535 13.3672H14.3398C14.9915 13.3672 15.4997 13.1781 15.8643 12.7998C16.2288 12.4261 16.4111 11.8747 16.4111 11.1455V5.7041H0.743164V11.1455ZM0.743164 4.71973H16.4111V4.11816C16.4111 3.389 16.2197 2.83529 15.8369 2.45703C15.4587 2.07878 14.9027 1.88965 14.1689 1.88965H7.81152C7.56543 1.88965 7.35807 1.85775 7.18945 1.79395C7.02083 1.73014 6.84082 1.62305 6.64941 1.47266L6.25977 1.15137C6.10026 1.01921 5.94759 0.916667 5.80176 0.84375C5.65592 0.766276 5.49642 0.711589 5.32324 0.679688C5.15007 0.647786 4.94499 0.631836 4.70801 0.631836H2.77344C2.13542 0.631836 1.63639 0.816406 1.27637 1.18555C0.920898 1.55013 0.743164 2.09245 0.743164 2.8125V4.71973Z" fill="#8206E3" fill-opacity="0.7"/>
</svg>
